<mxfile host="app.diagrams.net" modified="2021-11-15T14:58:21.029Z" agent="5.0 (X11)" etag="bGybHy9KVQN8mQEvh5ed" version="15.5.8" type="github">
  <diagram id="-u9c0rNSNzjVBrYj03Kq" name="Page-1">
    <mxGraphModel dx="2912" dy="1151" grid="1" gridSize="10" guides="1" tooltips="1" connect="1" arrows="1" fold="1" page="1" pageScale="1" pageWidth="850" pageHeight="1100" math="0" shadow="0">
      <root>
        <mxCell id="0" />
        <mxCell id="1" parent="0" />
        <mxCell id="EgzlLgq-aQsE86DNONWg-1" value="" style="edgeStyle=orthogonalEdgeStyle;rounded=0;orthogonalLoop=1;jettySize=auto;html=1;" edge="1" parent="1" source="EgzlLgq-aQsE86DNONWg-2" target="EgzlLgq-aQsE86DNONWg-4">
          <mxGeometry relative="1" as="geometry" />
        </mxCell>
        <mxCell id="EgzlLgq-aQsE86DNONWg-2" value="Select job type" style="rounded=0;whiteSpace=wrap;html=1;" vertex="1" parent="1">
          <mxGeometry x="280" y="20" width="120" height="60" as="geometry" />
        </mxCell>
        <mxCell id="EgzlLgq-aQsE86DNONWg-3" value="" style="edgeStyle=orthogonalEdgeStyle;rounded=0;orthogonalLoop=1;jettySize=auto;html=1;" edge="1" parent="1" source="EgzlLgq-aQsE86DNONWg-4" target="EgzlLgq-aQsE86DNONWg-6">
          <mxGeometry relative="1" as="geometry" />
        </mxCell>
        <mxCell id="EgzlLgq-aQsE86DNONWg-4" value="Fill in job information" style="whiteSpace=wrap;html=1;rounded=0;" vertex="1" parent="1">
          <mxGeometry x="280" y="130" width="120" height="60" as="geometry" />
        </mxCell>
        <mxCell id="EgzlLgq-aQsE86DNONWg-5" value="" style="edgeStyle=orthogonalEdgeStyle;rounded=0;orthogonalLoop=1;jettySize=auto;html=1;" edge="1" parent="1" source="EgzlLgq-aQsE86DNONWg-6" target="EgzlLgq-aQsE86DNONWg-9">
          <mxGeometry relative="1" as="geometry" />
        </mxCell>
        <mxCell id="EgzlLgq-aQsE86DNONWg-6" value="Select job upgrades &amp;amp;&amp;amp; press next" style="whiteSpace=wrap;html=1;rounded=0;" vertex="1" parent="1">
          <mxGeometry x="280" y="240" width="120" height="60" as="geometry" />
        </mxCell>
        <mxCell id="EgzlLgq-aQsE86DNONWg-7" value="" style="edgeStyle=orthogonalEdgeStyle;rounded=0;orthogonalLoop=1;jettySize=auto;html=1;" edge="1" parent="1" source="EgzlLgq-aQsE86DNONWg-9" target="EgzlLgq-aQsE86DNONWg-11">
          <mxGeometry relative="1" as="geometry" />
        </mxCell>
        <mxCell id="EgzlLgq-aQsE86DNONWg-8" value="" style="edgeStyle=orthogonalEdgeStyle;rounded=0;orthogonalLoop=1;jettySize=auto;html=1;" edge="1" parent="1" source="EgzlLgq-aQsE86DNONWg-9" target="EgzlLgq-aQsE86DNONWg-13">
          <mxGeometry relative="1" as="geometry" />
        </mxCell>
        <mxCell id="EgzlLgq-aQsE86DNONWg-9" value="&lt;b&gt;&lt;br&gt;User have credits &amp;amp;&amp;amp; there are no upgrades to be paid || or flatrate&lt;br&gt;|| user has no credits&lt;br&gt;&lt;/b&gt;" style="rhombus;whiteSpace=wrap;html=1;rounded=0;" vertex="1" parent="1">
          <mxGeometry x="280" y="340" width="120" height="120" as="geometry" />
        </mxCell>
        <mxCell id="EgzlLgq-aQsE86DNONWg-10" value="" style="edgeStyle=orthogonalEdgeStyle;rounded=0;orthogonalLoop=1;jettySize=auto;html=1;" edge="1" parent="1" source="EgzlLgq-aQsE86DNONWg-11" target="EgzlLgq-aQsE86DNONWg-27">
          <mxGeometry relative="1" as="geometry" />
        </mxCell>
        <mxCell id="EgzlLgq-aQsE86DNONWg-11" value="Subtract credits" style="whiteSpace=wrap;html=1;rounded=0;" vertex="1" parent="1">
          <mxGeometry x="520" y="370" width="120" height="60" as="geometry" />
        </mxCell>
        <mxCell id="EgzlLgq-aQsE86DNONWg-12" value="" style="edgeStyle=orthogonalEdgeStyle;rounded=0;orthogonalLoop=1;jettySize=auto;html=1;" edge="1" parent="1" source="EgzlLgq-aQsE86DNONWg-13" target="EgzlLgq-aQsE86DNONWg-15">
          <mxGeometry relative="1" as="geometry" />
        </mxCell>
        <mxCell id="EgzlLgq-aQsE86DNONWg-13" value="Create order &amp;amp;&amp;amp; redirect to order review step" style="whiteSpace=wrap;html=1;rounded=0;" vertex="1" parent="1">
          <mxGeometry x="70" y="370" width="120" height="60" as="geometry" />
        </mxCell>
        <mxCell id="EgzlLgq-aQsE86DNONWg-39" value="" style="edgeStyle=orthogonalEdgeStyle;rounded=0;orthogonalLoop=1;jettySize=auto;html=1;" edge="1" parent="1" source="EgzlLgq-aQsE86DNONWg-15" target="EgzlLgq-aQsE86DNONWg-38">
          <mxGeometry relative="1" as="geometry" />
        </mxCell>
        <mxCell id="EgzlLgq-aQsE86DNONWg-15" value="Fill in billing information&lt;br&gt;and calculate tax" style="whiteSpace=wrap;html=1;rounded=0;" vertex="1" parent="1">
          <mxGeometry x="70" y="470" width="120" height="60" as="geometry" />
        </mxCell>
        <mxCell id="EgzlLgq-aQsE86DNONWg-46" style="edgeStyle=orthogonalEdgeStyle;rounded=0;orthogonalLoop=1;jettySize=auto;html=1;" edge="1" parent="1" source="EgzlLgq-aQsE86DNONWg-17" target="EgzlLgq-aQsE86DNONWg-21">
          <mxGeometry relative="1" as="geometry" />
        </mxCell>
        <mxCell id="EgzlLgq-aQsE86DNONWg-17" value="Submit and redirect&lt;br&gt;to payment page" style="whiteSpace=wrap;html=1;rounded=0;" vertex="1" parent="1">
          <mxGeometry x="-545" y="590" width="120" height="60" as="geometry" />
        </mxCell>
        <mxCell id="EgzlLgq-aQsE86DNONWg-20" value="" style="edgeStyle=orthogonalEdgeStyle;rounded=0;orthogonalLoop=1;jettySize=auto;html=1;" edge="1" parent="1" source="EgzlLgq-aQsE86DNONWg-21" target="EgzlLgq-aQsE86DNONWg-23">
          <mxGeometry relative="1" as="geometry" />
        </mxCell>
        <mxCell id="EgzlLgq-aQsE86DNONWg-21" value="Enter credit card &lt;br&gt;info" style="whiteSpace=wrap;html=1;rounded=0;" vertex="1" parent="1">
          <mxGeometry x="-545" y="680" width="120" height="60" as="geometry" />
        </mxCell>
        <mxCell id="EgzlLgq-aQsE86DNONWg-22" value="" style="edgeStyle=orthogonalEdgeStyle;rounded=0;orthogonalLoop=1;jettySize=auto;html=1;startArrow=none;exitX=0.5;exitY=1;exitDx=0;exitDy=0;" edge="1" parent="1" source="EgzlLgq-aQsE86DNONWg-23" target="EgzlLgq-aQsE86DNONWg-25">
          <mxGeometry relative="1" as="geometry">
            <mxPoint x="190.19" y="1310" as="sourcePoint" />
            <Array as="points">
              <mxPoint x="-485" y="890" />
              <mxPoint x="-490" y="890" />
            </Array>
          </mxGeometry>
        </mxCell>
        <mxCell id="EgzlLgq-aQsE86DNONWg-23" value="Submit payment and&lt;br&gt;wait for stripe to finish&lt;br&gt;processing (card validation, 3ds" style="whiteSpace=wrap;html=1;rounded=0;" vertex="1" parent="1">
          <mxGeometry x="-545" y="780" width="120" height="60" as="geometry" />
        </mxCell>
        <mxCell id="EgzlLgq-aQsE86DNONWg-25" value="Set job unpublished and redirect to job manager" style="whiteSpace=wrap;html=1;rounded=0;" vertex="1" parent="1">
          <mxGeometry x="-545" y="880" width="120" height="60" as="geometry" />
        </mxCell>
        <mxCell id="EgzlLgq-aQsE86DNONWg-26" value="" style="edgeStyle=orthogonalEdgeStyle;rounded=0;orthogonalLoop=1;jettySize=auto;html=1;" edge="1" parent="1" source="EgzlLgq-aQsE86DNONWg-27" target="EgzlLgq-aQsE86DNONWg-36">
          <mxGeometry relative="1" as="geometry" />
        </mxCell>
        <mxCell id="EgzlLgq-aQsE86DNONWg-27" value="&lt;div&gt;Show info credit substracted&lt;/div&gt;&lt;div&gt;&lt;br&gt;&lt;/div&gt;" style="whiteSpace=wrap;html=1;rounded=0;" vertex="1" parent="1">
          <mxGeometry x="520" y="470" width="120" height="60" as="geometry" />
        </mxCell>
        <mxCell id="EgzlLgq-aQsE86DNONWg-28" value="publish job and apply upgrades to job" style="whiteSpace=wrap;html=1;rounded=0;" vertex="1" parent="1">
          <mxGeometry x="520" y="690" width="120" height="60" as="geometry" />
        </mxCell>
        <mxCell id="EgzlLgq-aQsE86DNONWg-29" value="" style="verticalLabelPosition=bottom;sketch=0;aspect=fixed;html=1;verticalAlign=top;strokeColor=none;align=center;outlineConnect=0;shape=mxgraph.citrix.process;" vertex="1" parent="1">
          <mxGeometry x="-440" y="960" width="30.19" height="36" as="geometry" />
        </mxCell>
        <mxCell id="EgzlLgq-aQsE86DNONWg-30" value="Drupal wait for stripe to recieve if payment is charged. Once is charged, set job published" style="text;html=1;strokeColor=none;fillColor=none;align=center;verticalAlign=middle;whiteSpace=wrap;rounded=0;" vertex="1" parent="1">
          <mxGeometry x="-540" y="960" width="120" height="160" as="geometry" />
        </mxCell>
        <mxCell id="EgzlLgq-aQsE86DNONWg-31" value="TRUE" style="text;html=1;strokeColor=none;fillColor=none;align=center;verticalAlign=middle;whiteSpace=wrap;rounded=0;" vertex="1" parent="1">
          <mxGeometry x="410" y="370" width="60" height="30" as="geometry" />
        </mxCell>
        <mxCell id="EgzlLgq-aQsE86DNONWg-32" value="FALSE" style="text;html=1;align=center;verticalAlign=middle;resizable=0;points=[];autosize=1;strokeColor=none;fillColor=none;" vertex="1" parent="1">
          <mxGeometry x="210.19" y="375" width="50" height="20" as="geometry" />
        </mxCell>
        <mxCell id="EgzlLgq-aQsE86DNONWg-33" style="edgeStyle=orthogonalEdgeStyle;rounded=0;orthogonalLoop=1;jettySize=auto;html=1;entryX=0.5;entryY=1;entryDx=0;entryDy=0;" edge="1" parent="1" source="EgzlLgq-aQsE86DNONWg-34" target="EgzlLgq-aQsE86DNONWg-28">
          <mxGeometry relative="1" as="geometry">
            <Array as="points">
              <mxPoint x="580" y="1180" />
            </Array>
          </mxGeometry>
        </mxCell>
        <mxCell id="EgzlLgq-aQsE86DNONWg-34" value="" style="rounded=1;whiteSpace=wrap;html=1;absoluteArcSize=1;arcSize=14;strokeWidth=2;fillColor=none;" vertex="1" parent="1">
          <mxGeometry x="-550" y="980" width="130" height="110" as="geometry" />
        </mxCell>
        <mxCell id="EgzlLgq-aQsE86DNONWg-35" style="edgeStyle=orthogonalEdgeStyle;rounded=0;orthogonalLoop=1;jettySize=auto;html=1;" edge="1" parent="1" source="EgzlLgq-aQsE86DNONWg-36" target="EgzlLgq-aQsE86DNONWg-28">
          <mxGeometry relative="1" as="geometry" />
        </mxCell>
        <mxCell id="EgzlLgq-aQsE86DNONWg-36" value="Redirect to job manager" style="whiteSpace=wrap;html=1;rounded=0;" vertex="1" parent="1">
          <mxGeometry x="520" y="560" width="120" height="60" as="geometry" />
        </mxCell>
        <mxCell id="EgzlLgq-aQsE86DNONWg-41" value="" style="edgeStyle=orthogonalEdgeStyle;rounded=0;orthogonalLoop=1;jettySize=auto;html=1;" edge="1" parent="1" source="EgzlLgq-aQsE86DNONWg-38" target="EgzlLgq-aQsE86DNONWg-40">
          <mxGeometry relative="1" as="geometry" />
        </mxCell>
        <mxCell id="EgzlLgq-aQsE86DNONWg-57" style="edgeStyle=orthogonalEdgeStyle;rounded=0;orthogonalLoop=1;jettySize=auto;html=1;entryX=0;entryY=0.25;entryDx=0;entryDy=0;" edge="1" parent="1" source="EgzlLgq-aQsE86DNONWg-38" target="EgzlLgq-aQsE86DNONWg-28">
          <mxGeometry relative="1" as="geometry" />
        </mxCell>
        <mxCell id="EgzlLgq-aQsE86DNONWg-38" value="is order total 0?" style="rhombus;whiteSpace=wrap;html=1;rounded=0;" vertex="1" parent="1">
          <mxGeometry x="90.38" y="580" width="80" height="80" as="geometry" />
        </mxCell>
        <mxCell id="EgzlLgq-aQsE86DNONWg-44" value="" style="edgeStyle=orthogonalEdgeStyle;rounded=0;orthogonalLoop=1;jettySize=auto;html=1;" edge="1" parent="1" source="EgzlLgq-aQsE86DNONWg-40" target="EgzlLgq-aQsE86DNONWg-43">
          <mxGeometry relative="1" as="geometry" />
        </mxCell>
        <mxCell id="EgzlLgq-aQsE86DNONWg-40" value="Show payments gateways and select it" style="whiteSpace=wrap;html=1;rounded=0;" vertex="1" parent="1">
          <mxGeometry x="-89.62" y="590" width="120" height="60" as="geometry" />
        </mxCell>
        <mxCell id="EgzlLgq-aQsE86DNONWg-45" style="edgeStyle=orthogonalEdgeStyle;rounded=0;orthogonalLoop=1;jettySize=auto;html=1;" edge="1" parent="1" source="EgzlLgq-aQsE86DNONWg-43" target="EgzlLgq-aQsE86DNONWg-17">
          <mxGeometry relative="1" as="geometry" />
        </mxCell>
        <mxCell id="EgzlLgq-aQsE86DNONWg-50" value="" style="edgeStyle=orthogonalEdgeStyle;rounded=0;orthogonalLoop=1;jettySize=auto;html=1;" edge="1" parent="1" source="EgzlLgq-aQsE86DNONWg-43" target="EgzlLgq-aQsE86DNONWg-49">
          <mxGeometry relative="1" as="geometry" />
        </mxCell>
        <mxCell id="EgzlLgq-aQsE86DNONWg-43" value="Stripe or pay per invoice" style="rhombus;whiteSpace=wrap;html=1;rounded=0;" vertex="1" parent="1">
          <mxGeometry x="-250" y="580" width="80" height="80" as="geometry" />
        </mxCell>
        <mxCell id="EgzlLgq-aQsE86DNONWg-47" value="&lt;div&gt;Stripe&lt;/div&gt;&lt;div&gt;&lt;br&gt;&lt;/div&gt;" style="text;html=1;strokeColor=none;fillColor=none;align=center;verticalAlign=middle;whiteSpace=wrap;rounded=0;" vertex="1" parent="1">
          <mxGeometry x="-360" y="600" width="60" height="30" as="geometry" />
        </mxCell>
        <mxCell id="EgzlLgq-aQsE86DNONWg-52" value="" style="edgeStyle=orthogonalEdgeStyle;rounded=0;orthogonalLoop=1;jettySize=auto;html=1;" edge="1" parent="1" source="EgzlLgq-aQsE86DNONWg-49" target="EgzlLgq-aQsE86DNONWg-51">
          <mxGeometry relative="1" as="geometry" />
        </mxCell>
        <mxCell id="EgzlLgq-aQsE86DNONWg-49" value="submit and redirect to payment page" style="whiteSpace=wrap;html=1;rounded=0;" vertex="1" parent="1">
          <mxGeometry x="-270" y="720" width="120" height="60" as="geometry" />
        </mxCell>
        <mxCell id="EgzlLgq-aQsE86DNONWg-54" style="edgeStyle=orthogonalEdgeStyle;rounded=0;orthogonalLoop=1;jettySize=auto;html=1;exitX=1;exitY=0.5;exitDx=0;exitDy=0;entryX=0;entryY=0.5;entryDx=0;entryDy=0;" edge="1" parent="1" source="EgzlLgq-aQsE86DNONWg-51" target="EgzlLgq-aQsE86DNONWg-28">
          <mxGeometry relative="1" as="geometry" />
        </mxCell>
        <mxCell id="EgzlLgq-aQsE86DNONWg-51" value="submit payment" style="whiteSpace=wrap;html=1;rounded=0;" vertex="1" parent="1">
          <mxGeometry x="-270" y="830" width="120" height="60" as="geometry" />
        </mxCell>
        <mxCell id="EgzlLgq-aQsE86DNONWg-56" value="" style="endArrow=none;dashed=1;html=1;dashPattern=1 3;strokeWidth=2;rounded=0;" edge="1" parent="1" source="EgzlLgq-aQsE86DNONWg-25">
          <mxGeometry width="50" height="50" relative="1" as="geometry">
            <mxPoint x="400" y="760" as="sourcePoint" />
            <mxPoint x="-485" y="980" as="targetPoint" />
          </mxGeometry>
        </mxCell>
        <mxCell id="EgzlLgq-aQsE86DNONWg-58" value="&lt;div&gt;True&lt;/div&gt;&lt;div&gt;&lt;br&gt;&lt;/div&gt;" style="text;html=1;strokeColor=none;fillColor=none;align=center;verticalAlign=middle;whiteSpace=wrap;rounded=0;" vertex="1" parent="1">
          <mxGeometry x="180" y="590" width="60" height="30" as="geometry" />
        </mxCell>
        <mxCell id="EgzlLgq-aQsE86DNONWg-59" value="false" style="text;html=1;strokeColor=none;fillColor=none;align=center;verticalAlign=middle;whiteSpace=wrap;rounded=0;" vertex="1" parent="1">
          <mxGeometry x="40" y="590" width="60" height="30" as="geometry" />
        </mxCell>
        <mxCell id="EgzlLgq-aQsE86DNONWg-60" value="Pay per invoice" style="text;html=1;strokeColor=none;fillColor=none;align=center;verticalAlign=middle;whiteSpace=wrap;rounded=0;" vertex="1" parent="1">
          <mxGeometry x="-270" y="670" width="60" height="30" as="geometry" />
        </mxCell>
      </root>
    </mxGraphModel>
  </diagram>
</mxfile>
